<svg width="146" height="36" viewBox="0 0 146 36" fill="none" xmlns="http://www.w3.org/2000/svg">
<path d="M33.149 28.8823L35.877 7.39393C37.3966 7.22718 39.5153 7.1438 42.233 7.1438C44.6152 7.1438 46.2649 7.56068 47.1822 8.39065C48.0995 9.22063 48.4212 10.7176 48.1372 12.874C47.9318 14.4316 47.5279 15.5951 46.9289 16.3607C46.3299 17.13 45.4366 17.5772 44.2558 17.6985L44.2284 17.8539C46.816 18.0813 47.8668 20.0141 47.3773 23.6485C47.0761 25.8087 46.4395 27.2602 45.464 28.0068C44.4885 28.7534 42.8764 29.1286 40.6277 29.1286C37.3487 29.1324 34.857 29.049 33.149 28.8823ZM36.2158 26.4568L40.2101 26.4871C41.7469 26.4871 42.8251 26.2446 43.4446 25.7557C44.0641 25.2668 44.468 24.308 44.6528 22.8754C44.8411 21.3405 44.6939 20.3059 44.2181 19.7753C43.7389 19.2447 42.7429 18.9719 41.2232 18.9491H37.1742L36.2158 26.4568ZM37.4822 16.5502H41.3636C42.7121 16.5502 43.6842 16.3 44.2763 15.8036C44.8684 15.3071 45.2552 14.371 45.4435 12.9991C45.6112 11.6916 45.4606 10.8313 44.9917 10.4144C44.5228 10.0013 43.5575 9.79289 42.096 9.79289H38.3276L37.4822 16.5502Z" fill="#333333"/>
<path d="M60.3768 13.6852H63.2176C62.2045 18.6271 60.8833 22.8111 59.2507 26.2371C57.7892 29.3107 56.3379 31.4898 54.9038 32.7784C53.4697 34.0669 51.7583 34.8969 49.7697 35.2683L49.2632 33.1195C50.4646 32.8087 51.5119 32.3425 52.4121 31.7172C53.3123 31.0957 54.1748 30.1482 54.9997 28.8824H53.7333C53.302 28.8824 52.9358 28.7536 52.638 28.4921C52.3368 28.2344 52.1485 27.8743 52.0767 27.4158L49.4343 13.6814H52.306L54.387 25.9832C54.4418 26.3356 54.63 26.5138 54.9483 26.5138H56.3277C56.403 26.3698 56.5057 26.1537 56.6357 25.8771C56.7658 25.5966 56.8514 25.4147 56.889 25.3313C58.5388 21.5339 59.7025 17.6531 60.3768 13.6852Z" fill="#333333"/>
<path d="M68.8139 16.0198L67.7152 24.5545C67.6228 25.2821 67.6809 25.7748 67.8966 26.0325C68.1122 26.294 68.5469 26.4229 69.2041 26.4229H71.2577L71.3706 28.7574C70.5458 29.0265 69.4779 29.1629 68.1635 29.1629C66.9451 29.1629 66.0688 28.7877 65.5349 28.0411C65.001 27.2945 64.8161 26.2258 64.9873 24.8349L66.1133 16.0198H63.6113L63.8646 13.8406L66.4248 13.6852L67.0169 9.23218H69.6901L69.1288 13.6852H73.349L73.0683 16.0198H68.8139Z" fill="#333333"/>
<path d="M84.6507 26.3622L84.8185 28.3859C83.487 28.9658 81.6011 29.2576 79.1641 29.2576C76.8196 29.2576 75.1972 28.5792 74.297 27.2187C73.3968 25.8581 73.1162 23.7472 73.4516 20.8821C73.8076 17.9563 74.5332 15.9553 75.6319 14.8865C76.7271 13.8178 78.5343 13.2834 81.0466 13.2834C83.1858 13.2834 84.637 13.7003 85.4072 14.5303C86.1773 15.3603 86.4579 16.5844 86.2526 18.2064C86.0267 19.6807 85.503 20.7456 84.6781 21.3975C83.8532 22.0531 82.5868 22.4511 80.8823 22.5951L76.1282 23.0612C76.1076 24.4938 76.3814 25.464 76.9428 25.9718C77.5041 26.4796 78.3872 26.7336 79.5851 26.7336C80.8618 26.7336 82.5492 26.6123 84.6507 26.3622ZM76.2959 20.8176L80.8823 20.3515C81.7448 20.2908 82.3746 20.0862 82.7682 19.7451C83.1619 19.404 83.4151 18.8052 83.5281 17.9525C83.641 16.9785 83.4939 16.376 83.0934 16.1448C82.6895 15.9174 81.8715 15.8037 80.6325 15.8037C79.2086 15.8037 78.1989 16.1296 77.6102 16.7853C77.0146 17.4371 76.5765 18.7825 76.2959 20.8176Z" fill="#333333"/>
<path d="M92.5538 7.08325L91.794 13.3744C91.6263 14.7463 91.3799 15.906 91.0615 16.861C91.9617 15.8643 92.9509 15.023 94.029 14.337C95.1072 13.651 96.1066 13.3099 97.0239 13.3099C98.1123 13.3099 98.9475 13.5335 99.5259 13.9807C100.108 14.4279 100.519 15.2579 100.765 16.4707C101.008 17.6834 100.97 19.3509 100.652 21.4695C100.447 23.1711 100.156 24.5582 99.7792 25.6269C99.4027 26.6956 98.9167 27.4915 98.3177 28.0107C97.7187 28.5299 97.1095 28.871 96.49 29.0378C95.8705 29.2045 95.073 29.2879 94.1009 29.2879C91.8145 29.2879 89.5076 28.9127 87.1802 28.1661L89.8533 7.08325H92.5538V7.08325ZM91.0068 19.2297L90.0792 26.7032C91.4278 26.7639 92.4306 26.798 93.0878 26.798C94.8676 26.798 96.0416 26.4834 96.6029 25.8467C97.1643 25.2138 97.5955 23.6827 97.8967 21.2534C98.1603 18.9909 98.1876 17.5356 97.9823 16.8913C97.7769 16.2471 97.243 15.9249 96.3804 15.9249C95.049 15.9287 93.2589 17.0278 91.0068 19.2297Z" fill="#333333"/>
<path d="M114.213 28.8824H112.074L112.187 26.0779C110.537 28.1965 108.569 29.2538 106.279 29.2538C104.609 29.2538 103.486 28.6512 102.904 27.4461C102.322 26.2409 102.22 24.1224 102.596 21.0943C102.801 19.4116 103.092 18.0359 103.469 16.9672C103.845 15.8984 104.342 15.1026 104.961 14.5834C105.581 14.0642 106.217 13.7155 106.875 13.5412C107.532 13.3668 108.374 13.2759 109.407 13.2759C111.639 13.2759 113.881 13.545 116.13 14.0869L114.213 28.8824ZM112.159 23.4023L113.145 15.8643C111.42 15.8226 110.455 15.8037 110.249 15.8037C109.274 15.8037 108.535 15.8568 108.028 15.9591C107.521 16.0614 107.076 16.3267 106.693 16.7549C106.31 17.1794 106.026 17.7251 105.848 18.3884C105.67 19.0516 105.495 20.0294 105.327 21.3141C105.064 23.5766 105.033 25.0319 105.228 25.6724C105.427 26.3167 105.964 26.6388 106.847 26.6388C107.71 26.6388 108.552 26.3735 109.38 25.843C110.198 25.32 111.129 24.5052 112.159 23.4023Z" fill="#333333"/>
<path d="M121.301 13.6853L121.161 16.9559C123.636 14.5077 125.802 13.2798 127.657 13.2798C128.821 13.2798 129.701 13.6474 130.3 14.3864C130.899 15.1254 131.104 16.179 130.919 17.5471L129.458 28.8825H126.757L128.078 18.2937C128.191 17.3387 128.157 16.6906 127.979 16.3458C127.801 16.0047 127.411 15.8303 126.812 15.8303C126.042 15.8303 125.241 16.0918 124.406 16.6073C123.571 17.1265 122.479 17.9792 121.13 19.1616L119.922 28.8787H117.194L119.135 13.6815H121.301V13.6853Z" fill="#333333"/>
<path d="M142.902 13.6851H145.688C144.901 16.4062 143.381 18.6574 141.132 20.4424C141.413 20.9199 141.694 21.5225 141.978 22.2502L144.651 28.8824H141.725L139.082 21.875C138.237 22.3752 137.152 22.9551 135.82 23.6183L135.119 28.8824H132.418L135.174 7.08325H137.901L136.662 17.2969C136.495 18.5437 136.193 19.7868 135.762 21.0336C137.542 20.0975 139.086 19.0061 140.39 17.7478C141.687 16.4934 142.526 15.1404 142.902 13.6851Z" fill="#333333"/>
<path d="M20.1667 7.20459H6.69141V22.1252H20.1667V7.20459Z" fill="#333333"/>
<path d="M6.64692 0H0.0924072V7.1552H6.64692V0Z" fill="#333333"/>
<path d="M26.5809 0H20.1188V7.1552H26.5809V0Z" fill="#333333"/>
<path d="M33.149 28.8823L35.877 7.39393C37.3966 7.22718 39.5153 7.1438 42.233 7.1438C44.6152 7.1438 46.2649 7.56068 47.1822 8.39065C48.0995 9.22063 48.4212 10.7176 48.1372 12.874C47.9318 14.4316 47.5279 15.5951 46.9289 16.3607C46.3299 17.13 45.4366 17.5772 44.2558 17.6985L44.2284 17.8539C46.816 18.0813 47.8668 20.0141 47.3773 23.6485C47.0761 25.8087 46.4395 27.2602 45.464 28.0068C44.4885 28.7534 42.8764 29.1286 40.6277 29.1286C37.3487 29.1324 34.857 29.049 33.149 28.8823ZM36.2158 26.4568L40.2101 26.4871C41.7469 26.4871 42.8251 26.2446 43.4446 25.7557C44.0641 25.2668 44.468 24.308 44.6528 22.8754C44.8411 21.3405 44.6939 20.3059 44.2181 19.7753C43.7389 19.2447 42.7429 18.9719 41.2232 18.9491H37.1742L36.2158 26.4568ZM37.4822 16.5502H41.3636C42.7121 16.5502 43.6842 16.3 44.2763 15.8036C44.8684 15.3071 45.2552 14.371 45.4435 12.9991C45.6112 11.6916 45.4606 10.8313 44.9917 10.4144C44.5228 10.0013 43.5575 9.79289 42.096 9.79289H38.3276L37.4822 16.5502Z" fill="#333333"/>
<path d="M60.3768 13.6852H63.2176C62.2045 18.6271 60.8833 22.8111 59.2507 26.2371C57.7892 29.3107 56.3379 31.4898 54.9038 32.7784C53.4697 34.0669 51.7583 34.8969 49.7697 35.2683L49.2632 33.1195C50.4646 32.8087 51.5119 32.3425 52.4121 31.7172C53.3123 31.0957 54.1748 30.1482 54.9997 28.8824H53.7333C53.302 28.8824 52.9358 28.7536 52.638 28.4921C52.3368 28.2344 52.1485 27.8743 52.0767 27.4158L49.4343 13.6814H52.306L54.387 25.9832C54.4418 26.3356 54.63 26.5138 54.9483 26.5138H56.3277C56.403 26.3698 56.5057 26.1537 56.6357 25.8771C56.7658 25.5966 56.8514 25.4147 56.889 25.3313C58.5388 21.5339 59.7025 17.6531 60.3768 13.6852Z" fill="#333333"/>
<path d="M68.8139 16.0198L67.7152 24.5545C67.6228 25.2821 67.6809 25.7748 67.8966 26.0325C68.1122 26.294 68.5469 26.4229 69.2041 26.4229H71.2577L71.3706 28.7574C70.5458 29.0265 69.4779 29.1629 68.1635 29.1629C66.9451 29.1629 66.0688 28.7877 65.5349 28.0411C65.001 27.2945 64.8161 26.2258 64.9873 24.8349L66.1133 16.0198H63.6113L63.8646 13.8406L66.4248 13.6852L67.0169 9.23218H69.6901L69.1288 13.6852H73.349L73.0683 16.0198H68.8139Z" fill="#333333"/>
<path d="M84.6507 26.3622L84.8185 28.3859C83.487 28.9658 81.6011 29.2576 79.1641 29.2576C76.8196 29.2576 75.1972 28.5792 74.297 27.2187C73.3968 25.8581 73.1162 23.7472 73.4516 20.8821C73.8076 17.9563 74.5332 15.9553 75.6319 14.8865C76.7271 13.8178 78.5343 13.2834 81.0466 13.2834C83.1858 13.2834 84.637 13.7003 85.4072 14.5303C86.1773 15.3603 86.4579 16.5844 86.2526 18.2064C86.0267 19.6807 85.503 20.7456 84.6781 21.3975C83.8532 22.0531 82.5868 22.4511 80.8823 22.5951L76.1282 23.0612C76.1076 24.4938 76.3814 25.464 76.9428 25.9718C77.5041 26.4796 78.3872 26.7336 79.5851 26.7336C80.8618 26.7336 82.5492 26.6123 84.6507 26.3622ZM76.2959 20.8176L80.8823 20.3515C81.7448 20.2908 82.3746 20.0862 82.7682 19.7451C83.1619 19.404 83.4151 18.8052 83.5281 17.9525C83.641 16.9785 83.4939 16.376 83.0934 16.1448C82.6895 15.9174 81.8715 15.8037 80.6325 15.8037C79.2086 15.8037 78.1989 16.1296 77.6102 16.7853C77.0146 17.4371 76.5765 18.7825 76.2959 20.8176Z" fill="#333333"/>
<path d="M92.5538 7.08325L91.794 13.3744C91.6263 14.7463 91.3799 15.906 91.0615 16.861C91.9617 15.8643 92.9509 15.023 94.029 14.337C95.1072 13.651 96.1066 13.3099 97.0239 13.3099C98.1123 13.3099 98.9475 13.5335 99.5259 13.9807C100.108 14.4279 100.519 15.2579 100.765 16.4707C101.008 17.6834 100.97 19.3509 100.652 21.4695C100.447 23.1711 100.156 24.5582 99.7792 25.6269C99.4027 26.6956 98.9167 27.4915 98.3177 28.0107C97.7187 28.5299 97.1095 28.871 96.49 29.0378C95.8705 29.2045 95.073 29.2879 94.1009 29.2879C91.8145 29.2879 89.5076 28.9127 87.1802 28.1661L89.8533 7.08325H92.5538V7.08325ZM91.0068 19.2297L90.0792 26.7032C91.4278 26.7639 92.4306 26.798 93.0878 26.798C94.8676 26.798 96.0416 26.4834 96.6029 25.8467C97.1643 25.2138 97.5955 23.6827 97.8967 21.2534C98.1603 18.9909 98.1876 17.5356 97.9823 16.8913C97.7769 16.2471 97.243 15.9249 96.3804 15.9249C95.049 15.9287 93.2589 17.0278 91.0068 19.2297Z" fill="#333333"/>
<path d="M114.213 28.8824H112.074L112.187 26.0779C110.537 28.1965 108.569 29.2538 106.279 29.2538C104.609 29.2538 103.486 28.6512 102.904 27.4461C102.322 26.2409 102.22 24.1224 102.596 21.0943C102.801 19.4116 103.092 18.0359 103.469 16.9672C103.845 15.8984 104.342 15.1026 104.961 14.5834C105.581 14.0642 106.217 13.7155 106.875 13.5412C107.532 13.3668 108.374 13.2759 109.407 13.2759C111.639 13.2759 113.881 13.545 116.13 14.0869L114.213 28.8824ZM112.159 23.4023L113.145 15.8643C111.42 15.8226 110.455 15.8037 110.249 15.8037C109.274 15.8037 108.535 15.8568 108.028 15.9591C107.521 16.0614 107.076 16.3267 106.693 16.7549C106.31 17.1794 106.026 17.7251 105.848 18.3884C105.67 19.0516 105.495 20.0294 105.327 21.3141C105.064 23.5766 105.033 25.0319 105.228 25.6724C105.427 26.3167 105.964 26.6388 106.847 26.6388C107.71 26.6388 108.552 26.3735 109.38 25.843C110.198 25.32 111.129 24.5052 112.159 23.4023Z" fill="#333333"/>
<path d="M121.301 13.6853L121.161 16.9559C123.636 14.5077 125.802 13.2798 127.657 13.2798C128.821 13.2798 129.701 13.6474 130.3 14.3864C130.899 15.1254 131.104 16.179 130.919 17.5471L129.458 28.8825H126.757L128.078 18.2937C128.191 17.3387 128.157 16.6906 127.979 16.3458C127.801 16.0047 127.411 15.8303 126.812 15.8303C126.042 15.8303 125.241 16.0918 124.406 16.6073C123.571 17.1265 122.479 17.9792 121.13 19.1616L119.922 28.8787H117.194L119.135 13.6815H121.301V13.6853Z" fill="#333333"/>
<path d="M142.902 13.6851H145.688C144.901 16.4062 143.381 18.6574 141.132 20.4424C141.413 20.9199 141.694 21.5225 141.978 22.2502L144.651 28.8824H141.725L139.082 21.875C138.237 22.3752 137.152 22.9551 135.82 23.6183L135.119 28.8824H132.418L135.174 7.08325H137.901L136.662 17.2969C136.495 18.5437 136.193 19.7868 135.762 21.0336C137.542 20.0975 139.086 19.0061 140.39 17.7478C141.687 16.4934 142.526 15.1404 142.902 13.6851Z" fill="#333333"/>
<path d="M13.4753 22.0757H0V29.5379H13.4753V22.0757Z" fill="#333333"/>
<path d="M20.1667 7.20459H6.69141V22.1252H20.1667V7.20459Z" fill="#333333"/>
<path d="M6.64692 0H0.0924072V7.1552H6.64692V0Z" fill="#333333"/>
<path d="M26.5809 0H20.1188V7.1552H26.5809V0Z" fill="#333333"/>
</svg>
