<svg width="478" height="318" viewBox="0 0 478 318" fill="none" xmlns="http://www.w3.org/2000/svg">
<g clip-path="url(#clip0_18449_864)">
<path d="M242.151 89.2095C237.889 82.1604 232.838 74.634 224.929 72.3322C215.769 69.6667 206.36 74.9619 198.379 80.1872C174.511 95.8144 151.525 112.75 129.528 130.916L129.552 131.19C146.678 130.008 163.804 128.827 180.93 127.646C193.303 126.793 206.102 125.822 217.037 119.969C221.186 117.748 225.231 114.781 229.933 114.574C235.774 114.317 240.868 118.397 244.871 122.659C268.549 147.873 275.401 186.431 301.965 208.584C285.214 167.274 265.214 127.357 242.151 89.2095Z" fill="#F2F2F2"/>
<path d="M387.697 303.07C385.078 299.764 384.008 298.989 381.426 295.652C360.395 268.452 340.628 240.334 322.125 211.297C309.557 191.576 297.612 171.476 286.29 150.998C280.9 141.262 275.658 131.45 270.563 121.562C266.61 113.894 262.745 106.181 258.968 98.4221C257.888 96.2059 256.838 93.9796 255.794 91.7482C253.333 86.5008 250.918 81.228 248.325 76.0519C245.371 70.1525 241.774 63.9677 236.348 60.0041C233.879 58.1263 230.926 56.9901 227.835 56.7284C223.418 56.4431 219.342 58.2669 215.511 60.2589C187.481 74.8751 161.239 93.2002 137.504 114.052C113.708 134.951 92.4377 158.562 74.1276 184.403C73.5674 185.203 72.2428 184.438 72.8082 183.633C75.0346 180.485 77.3051 177.371 79.6197 174.29C108.4 136.013 143.689 103.096 183.874 77.0454C190.635 72.6641 197.523 68.4883 204.538 64.5179C208.073 62.5157 211.624 60.5391 215.236 58.6847C218.777 56.8659 222.537 55.2305 226.582 55.1694C240.347 54.9555 247.475 70.5447 252.37 81.0344C253.909 84.3357 255.466 87.6267 257.042 90.9076C262.998 103.364 269.182 115.706 275.596 127.935C279.555 135.485 283.6 142.991 287.732 150.453C300.59 173.689 314.257 196.455 328.733 218.75C347.909 248.283 366.932 274.372 388.777 301.99C389.378 302.754 388.303 303.844 387.697 303.07Z" fill="#E4E4E4"/>
<path d="M136.143 106.354C135.344 105.463 134.549 104.571 133.744 103.68C127.396 96.6595 120.585 89.7208 111.868 85.6961C107.712 83.7164 103.175 82.6647 98.5712 82.6138C93.813 82.6291 89.1617 83.8773 84.7652 85.6248C82.6866 86.4552 80.6537 87.3976 78.6517 88.4012C76.3642 89.5526 74.1174 90.7804 71.8811 92.0184C67.683 94.3415 63.5395 96.7665 59.4504 99.2934C51.3143 104.322 43.433 109.734 35.8066 115.53C31.8531 118.535 27.9812 121.64 24.1909 124.843C20.6655 127.818 17.2114 130.873 13.8286 134.008C13.1052 134.675 12.0251 133.595 12.7485 132.928C13.6401 132.097 14.5418 131.272 15.4436 130.457C17.9908 128.154 20.5789 125.895 23.2078 123.681C28.0016 119.636 32.9195 115.747 37.9615 112.014C45.8021 106.207 53.9126 100.793 62.293 95.7731C66.4808 93.2666 70.7262 90.8653 75.0293 88.5694C76.3286 87.8765 77.643 87.199 78.9726 86.557C81.9896 85.0352 85.1244 83.7591 88.3465 82.7412C92.9108 81.2647 97.7399 80.7903 102.504 81.3504C107.104 82.0195 111.536 83.5528 115.567 85.8693C124.125 90.6531 130.764 98.0503 137.224 105.269C137.876 106.003 136.801 107.088 136.143 106.354Z" fill="#E4E4E4"/>
<path d="M311.51 179.103L332.019 171.602L342.201 167.877C345.518 166.664 348.826 165.284 352.254 164.415C355.234 163.564 358.397 163.604 361.354 164.531C363.99 165.507 366.404 167.003 368.451 168.93C370.542 170.856 372.488 172.934 374.272 175.147C376.489 177.811 378.673 180.504 380.867 183.187C389.922 194.261 398.918 205.383 407.855 216.554C416.792 227.724 425.669 238.941 434.486 250.206C443.324 261.499 452.102 272.839 460.819 284.226C461.887 285.621 462.954 287.016 464.02 288.413C464.609 289.184 465.937 288.423 465.34 287.641C456.558 276.14 447.716 264.685 438.812 253.278C429.886 241.843 420.899 230.457 411.85 219.12C402.801 207.782 393.691 196.494 384.52 185.255C382.235 182.455 379.947 179.658 377.654 176.864C375.721 174.507 373.809 172.125 371.688 169.932C367.795 165.905 362.931 162.347 357.109 162.251C353.685 162.194 350.373 163.28 347.192 164.431C343.763 165.671 340.343 166.935 336.919 168.187L316.266 175.741L311.103 177.629C310.187 177.964 310.583 179.442 311.51 179.103Z" fill="#E4E4E4"/>
<path d="M109.169 94.5296C98.747 89.1732 85.3999 90.2223 75.8226 96.9144C94.0906 100.066 112.159 104.283 129.934 109.544C122.553 105.218 116.779 98.4405 109.169 94.5296Z" fill="#F2F2F2"/>
<path d="M75.72 96.8958L73.7136 98.5266C74.3923 97.9558 75.0978 97.4206 75.8226 96.9142C75.7884 96.9083 75.7543 96.9017 75.72 96.8958Z" fill="#F2F2F2"/>
<path d="M367.679 179.178C365.66 176.721 363.477 174.148 360.457 173.149L357.638 173.261C379.099 211.183 408.084 244.319 442.813 270.636C417.768 240.15 392.724 209.664 367.679 179.178Z" fill="#F2F2F2"/>
<path d="M192.365 158.905C193.67 163.645 196.609 167.771 200.663 170.553C202.23 171.62 204.084 172.643 204.621 174.462C204.903 175.621 204.729 176.845 204.135 177.88C203.542 178.901 202.821 179.843 201.989 180.681L201.913 180.966C198.024 178.661 194.324 175.746 192.176 171.768C190.027 167.79 189.727 162.577 192.365 158.905Z" fill="#F2F2F2"/>
<path d="M321.85 271.719C323.155 276.459 326.094 280.584 330.148 283.366C331.715 284.433 333.569 285.457 334.106 287.275C334.388 288.435 334.214 289.658 333.62 290.693C333.027 291.715 332.306 292.656 331.474 293.495L331.398 293.779C327.509 291.474 323.809 288.559 321.661 284.581C319.512 280.603 319.212 275.39 321.85 271.719Z" fill="#F2F2F2"/>
<path d="M63.4361 263.938C64.7408 268.678 67.68 272.804 71.7338 275.586C73.301 276.653 75.1553 277.676 75.6914 279.495C75.9735 280.654 75.7997 281.878 75.206 282.913C74.6133 283.934 73.8921 284.876 73.0601 285.714L72.9842 285.999C69.095 283.694 65.3949 280.779 63.2465 276.801C61.0982 272.823 60.7982 267.61 63.4361 263.938Z" fill="#F2F2F2"/>
<path d="M360.806 56.6844C376.459 56.6844 389.149 43.9951 389.149 28.3422C389.149 12.6892 376.459 0 360.806 0C345.154 0 332.464 12.6892 332.464 28.3422C332.464 43.9951 345.154 56.6844 360.806 56.6844Z" fill="#CFDB58"/>
<path d="M411.953 6.59667C398.217 4.74001 382.536 12.1643 378.975 25.5601C378.078 23.1783 376.447 21.1434 374.318 19.7494C372.188 18.3554 369.671 17.6744 367.129 17.8048C364.587 17.9353 362.153 18.8704 360.177 20.475C358.202 22.0797 356.787 24.2709 356.139 26.732L357.711 27.8583C387.147 34.2237 417.617 34.086 446.994 27.4546C437.439 17.4132 425.689 8.45329 411.953 6.59667Z" fill="#F0F0F0"/>
<path d="M353.046 44.3865C339.31 42.5298 323.628 49.9541 320.068 63.3499C319.171 60.9681 317.54 58.9333 315.411 57.5392C313.281 56.1452 310.764 55.4642 308.222 55.5946C305.68 55.7251 303.245 56.6602 301.27 58.2648C299.294 59.8695 297.88 62.0607 297.231 64.5218L298.804 65.6481C328.24 72.0135 358.71 71.8758 388.087 65.2444C378.532 55.203 366.782 46.2431 353.046 44.3865Z" fill="#F0F0F0"/>
<path d="M472.932 51.5316C472.875 51.5317 472.818 51.5229 472.764 51.5056C325.826 5.03653 196.32 11.1132 113.552 24.3937C102.288 26.2004 90.9942 28.2871 79.9838 30.5963C77.1729 31.1851 74.2567 31.8163 71.3163 32.4735C67.8047 33.2555 64.3399 34.0609 61.0174 34.8663C59.5825 35.206 58.1756 35.5484 56.7968 35.8936C54.7082 36.4092 52.5889 36.9464 50.3172 37.5369C47.7787 38.1914 45.1995 38.8779 42.6496 39.5775C42.6403 39.5807 42.6307 39.5835 42.6211 39.5856L42.6214 39.5862C39.7412 40.3725 36.8763 41.1817 34.1058 41.9898C32.6063 42.4229 31.1584 42.85 29.7715 43.2717C29.6165 43.3145 29.4792 43.3558 29.34 43.3981L29.0421 43.4887C28.8695 43.5414 28.6991 43.5929 28.5287 43.6418L28.5178 43.645L28.5181 43.6456L28.0671 43.7856C27.5293 43.9485 27.0045 44.1075 26.4884 44.2659C12.8481 48.4708 5.34952 51.4622 5.27544 51.4915C5.2077 51.5187 5.13528 51.5322 5.0623 51.5314C4.98933 51.5305 4.91723 51.5153 4.85013 51.4866C4.78303 51.4579 4.72223 51.4163 4.67123 51.3641C4.62022 51.3119 4.57998 51.2502 4.55283 51.1824C4.52568 51.1147 4.51214 51.0423 4.51298 50.9693C4.51381 50.8963 4.52902 50.8242 4.55772 50.7571C4.58641 50.69 4.62805 50.6292 4.68024 50.5782C4.73243 50.5272 4.79416 50.487 4.8619 50.4598C4.93652 50.4305 12.4717 47.4239 26.1617 43.2033C26.6797 43.0443 27.2059 42.8853 27.7453 42.7219L28.1643 42.5917C28.1786 42.5863 28.193 42.5819 28.2077 42.5776C28.3773 42.5293 28.5466 42.4777 28.7186 42.4256L29.0171 42.335C29.1658 42.29 29.3124 42.2454 29.4624 42.2042C30.8398 41.7852 32.2926 41.357 33.7959 40.9223C36.5675 40.1137 39.4351 39.3045 42.3175 38.5171C42.3264 38.5138 42.3356 38.5116 42.3446 38.5089C44.9034 37.8072 47.4921 37.1174 50.0388 36.4608C52.3141 35.8697 54.4374 35.3314 56.5295 34.8147C57.9142 34.4701 59.3238 34.1269 60.7583 33.7852C64.0845 32.9788 67.5564 32.1723 71.0743 31.3886C74.0192 30.7309 76.9404 30.0981 79.7559 29.5087C90.7834 27.1957 102.095 25.1058 113.376 23.2964C196.262 9.99686 325.954 3.91041 473.099 50.4462C473.225 50.4861 473.334 50.57 473.404 50.6827C473.474 50.7954 473.501 50.9295 473.481 51.0606C473.461 51.1917 473.394 51.3113 473.293 51.3977C473.193 51.4841 473.064 51.5316 472.932 51.5316Z" fill="#CCCCCC"/>
<path d="M146.151 233.317C145.958 232.755 145.634 232.246 145.206 231.833C145.048 231.687 144.877 231.555 144.695 231.439C143.244 230.472 141.077 230.255 139.699 231.439C139.56 231.559 139.431 231.691 139.315 231.833C138.904 232.339 138.481 232.834 138.048 233.317C137.337 234.129 136.609 234.912 135.847 235.674C135.631 235.885 135.414 236.101 135.192 236.313C135.064 236.44 134.936 236.563 134.808 236.685C134.319 237.152 133.819 237.602 133.313 238.047C133.046 238.286 132.78 238.519 132.507 238.747C132.102 239.086 131.696 239.425 131.285 239.753C131.246 239.78 131.207 239.808 131.168 239.842C131.157 239.847 131.151 239.858 131.14 239.864C131.135 239.864 131.129 239.864 131.124 239.875C131.109 239.881 131.095 239.89 131.085 239.903C130.962 239.986 130.879 240.042 130.818 240.092C130.84 240.081 130.862 240.064 130.885 240.053C130.785 240.131 130.679 240.208 130.579 240.286C129.606 241.003 128.612 241.692 127.595 242.337C125.079 243.947 122.436 245.35 119.692 246.533C119.509 246.605 119.32 246.683 119.131 246.755C111.948 249.698 104.156 250.846 96.4294 250.1C95.6403 250.039 94.8511 249.956 94.062 249.85C93.1506 249.717 92.2448 249.556 91.3445 249.372C87.9171 248.688 84.5635 247.676 81.3303 246.349C77.2858 244.497 73.439 242.24 69.8489 239.614C69.2932 239.219 68.7319 238.825 68.1706 238.441C68.8097 236.874 69.4377 235.307 70.049 233.729C70.3546 232.967 70.6492 232.206 70.9382 231.439C73.2111 225.532 75.3451 219.569 77.3902 213.583C79.4575 207.52 81.4081 201.422 83.242 195.289C83.4309 194.666 83.6143 194.044 83.7922 193.422C84.7536 190.182 85.6761 186.934 86.5597 183.68C86.6431 183.363 86.732 183.052 86.8098 182.735C87.0654 181.801 87.3155 180.868 87.56 179.934C88.1157 177.828 86.8598 175.31 84.648 174.805C83.5831 174.532 82.4537 174.683 81.4979 175.226C80.5421 175.769 79.8345 176.662 79.5242 177.717C79.2852 178.617 79.0462 179.512 78.8017 180.412C77.6291 184.763 76.3954 189.1 75.1006 193.422C74.9116 194.044 74.7227 194.666 74.5337 195.289C71.6773 204.703 68.5411 214.022 65.1252 223.247C64.714 224.364 64.2972 225.478 63.8748 226.587C63.6692 227.132 63.4636 227.677 63.2524 228.221C62.8467 229.294 62.4299 230.366 62.0131 231.439C61.7741 232.067 61.5296 232.695 61.2851 233.317C61.124 233.712 60.9684 234.106 60.8128 234.495C59.2283 233.926 57.5867 233.531 55.9168 233.317L55.65 233.284C54.3554 233.128 53.0461 233.139 51.7544 233.317C49.821 233.543 47.9608 234.19 46.3053 235.214C44.6498 236.238 43.2393 237.613 42.1736 239.241C39.5228 243.415 39.5561 249.383 43.274 252.929C47.1029 256.58 52.8992 256.552 57.4061 254.268C59.7945 252.976 61.8084 251.089 63.2524 248.789C63.8056 247.955 64.3139 247.093 64.7751 246.205C64.8918 246.282 65.0085 246.36 65.1252 246.444C65.5698 246.755 66.0144 247.072 66.4534 247.383C69.0114 249.236 71.7071 250.891 74.5171 252.334C80.5589 255.338 87.0626 257.305 93.7564 258.153C93.9064 258.169 94.0509 258.192 94.201 258.208C94.9401 258.303 95.6848 258.375 96.4294 258.436C107.112 259.241 117.807 257.055 127.317 252.123C128.123 251.706 128.921 251.269 129.712 250.812C130.94 250.1 132.141 249.345 133.313 248.544C133.952 248.111 134.575 247.672 135.192 247.211C137.887 245.225 140.4 243.003 142.699 240.57C143.572 239.653 144.407 238.706 145.206 237.73C145.961 236.931 146.396 235.883 146.428 234.784C146.424 234.283 146.33 233.786 146.151 233.317ZM54.1274 246.555C54.2441 246.471 54.3608 246.382 54.4719 246.294C54.4386 246.377 54.2774 246.471 54.1274 246.555ZM55.9112 244.76C55.7834 244.904 55.6667 245.049 55.5389 245.193C55.15 245.628 54.7323 246.037 54.2885 246.416C54.2274 246.471 54.1607 246.527 54.094 246.577C54.0933 246.577 54.0925 246.577 54.0919 246.577C54.0912 246.578 54.0906 246.578 54.09 246.579C54.0895 246.579 54.0891 246.58 54.0888 246.58C54.0886 246.581 54.0884 246.582 54.0884 246.583C54.0082 246.618 53.9302 246.659 53.855 246.705C53.6161 246.849 53.3715 246.983 53.1215 247.105C52.6318 247.285 52.1281 247.425 51.6155 247.522C51.2215 247.55 50.8262 247.554 50.4318 247.533H50.4206C50.1484 247.472 49.8795 247.398 49.6148 247.311C49.4815 247.244 49.3536 247.166 49.2258 247.088C49.1758 247.044 49.1313 246.999 49.1036 246.972C49.0493 246.922 48.9991 246.868 48.9535 246.81C48.9536 246.81 48.9534 246.809 48.9531 246.808C48.9529 246.808 48.9525 246.807 48.952 246.806C48.9514 246.806 48.9508 246.805 48.9501 246.805C48.9494 246.805 48.9487 246.805 48.948 246.805C48.8868 246.694 48.8201 246.583 48.759 246.471C48.7559 246.468 48.7539 246.465 48.7535 246.46C48.709 246.321 48.6701 246.177 48.6368 246.032C48.6247 245.779 48.6266 245.525 48.6423 245.271C48.7169 244.916 48.8172 244.567 48.9424 244.226C49.0549 243.985 49.183 243.751 49.3259 243.526C49.337 243.504 49.3926 243.415 49.4537 243.315C49.4593 243.309 49.4592 243.309 49.4592 243.304C49.5426 243.209 49.626 243.109 49.7149 243.02C49.8649 242.854 50.0261 242.709 50.1873 242.559C50.5007 242.354 50.8254 242.167 51.1598 241.998C51.6903 241.809 52.2347 241.663 52.7881 241.559C53.6041 241.494 54.4242 241.501 55.2388 241.581C56.0105 241.715 56.7718 241.902 57.5173 242.142C57.0655 243.019 56.551 243.862 55.978 244.665C55.9557 244.699 55.9335 244.732 55.9112 244.76ZM49.7315 242.931C49.6826 243.01 49.6248 243.083 49.5593 243.148C49.6034 243.066 49.6617 242.993 49.7315 242.931Z" fill="#3F3D56"/>
<path d="M129.445 176.561C129.395 178.306 129.345 180.051 129.295 181.796C129.19 185.669 129.08 189.544 128.967 193.421C128.851 197.784 128.728 202.144 128.601 206.503C128.539 208.754 128.476 211.005 128.412 213.255C128.239 219.318 128.069 225.379 127.9 231.439C127.884 232.067 127.861 232.689 127.845 233.317C127.761 236.324 127.678 239.33 127.595 242.337C127.5 245.599 127.408 248.861 127.317 252.123C127.25 254.568 127.182 257.015 127.111 259.464C126.611 277.209 126.111 294.953 125.611 312.698C125.59 313.796 125.144 314.844 124.367 315.621C123.589 316.398 122.542 316.844 121.443 316.865C120.34 316.857 119.285 316.415 118.505 315.635C117.726 314.855 117.284 313.8 117.275 312.698C117.553 302.717 117.834 292.736 118.119 282.755C118.37 273.73 118.623 264.705 118.881 255.68C118.964 252.707 119.048 249.732 119.131 246.755C119.259 242.276 119.385 237.796 119.509 233.317C119.525 232.689 119.548 232.067 119.564 231.439C119.575 230.889 119.592 230.344 119.609 229.794C119.853 221.097 120.098 212.398 120.342 203.697C120.442 200.274 120.539 196.848 120.631 193.421C120.743 189.515 120.854 185.61 120.965 181.707C121.015 179.989 121.059 178.278 121.109 176.561C121.13 175.462 121.576 174.414 122.353 173.637C123.131 172.86 124.178 172.414 125.277 172.393C126.38 172.401 127.435 172.843 128.215 173.623C128.994 174.403 129.436 175.458 129.445 176.561Z" fill="#3F3D56"/>
<path d="M358.088 177.717C353.717 194.267 348.494 210.579 342.438 226.589C340.767 231.005 339.057 235.412 337.23 239.766L337.65 238.771C336.834 240.844 335.793 242.822 334.544 244.668C334.459 244.787 334.372 244.905 334.284 245.022C334.716 244.469 334.798 244.36 334.53 244.694C334.389 244.861 334.25 245.029 334.104 245.192C333.715 245.627 333.297 246.036 332.854 246.416C332.742 246.512 332.629 246.605 332.514 246.696L333.035 246.291C332.975 246.434 332.55 246.623 332.418 246.704C331.99 246.963 331.543 247.189 331.082 247.381L332.077 246.961C331.321 247.266 330.532 247.482 329.726 247.606L330.834 247.457C330.042 247.567 329.239 247.575 328.445 247.483L329.553 247.632C328.904 247.542 328.268 247.371 327.661 247.122L328.657 247.542C328.333 247.401 328.021 247.235 327.724 247.044C327.573 246.946 327.11 246.595 327.716 247.058C328.345 247.539 327.797 247.099 327.667 246.971C327.559 246.865 327.461 246.749 327.356 246.641C326.866 246.138 327.91 247.506 327.576 246.918C327.398 246.623 327.235 246.32 327.088 246.008L327.509 247.004C327.317 246.53 327.182 246.036 327.104 245.53L327.253 246.638C327.173 246.01 327.173 245.375 327.251 244.746L327.102 245.854C327.204 245.153 327.39 244.466 327.655 243.809L327.235 244.805C327.42 244.363 327.639 243.936 327.89 243.527C328.005 243.316 328.141 243.117 328.294 242.932C328.322 242.941 327.589 243.773 327.978 243.353C328.08 243.243 328.175 243.127 328.277 243.018C328.442 242.844 328.618 242.684 328.792 242.519C329.372 241.966 327.979 243.056 328.649 242.619C329.135 242.299 329.646 242.021 330.177 241.785L329.182 242.206C330.071 241.84 331.004 241.59 331.957 241.461L330.849 241.61C332.043 241.473 333.25 241.487 334.44 241.652L333.332 241.504C334.839 241.732 336.312 242.146 337.718 242.737L336.722 242.317C339.717 243.603 342.37 245.512 345.018 247.384C347.575 249.236 350.27 250.891 353.079 252.334C359.122 255.338 365.626 257.306 372.32 258.154C381.92 259.33 391.663 258.077 400.652 254.508C409.642 250.94 417.592 245.17 423.772 237.73C424.526 236.93 424.961 235.882 424.993 234.783C424.985 233.679 424.547 232.622 423.772 231.836C422.243 230.432 419.355 230.036 417.878 231.836C416.479 233.544 414.974 235.164 413.373 236.686C412.625 237.395 411.858 238.082 411.071 238.747C410.621 239.127 410.165 239.5 409.703 239.865C409.485 240.038 408.804 240.497 409.85 239.755C409.61 239.925 409.38 240.111 409.143 240.286C405.643 242.866 401.851 245.023 397.844 246.713L398.84 246.293C394.541 248.096 390.025 249.333 385.407 249.973L386.515 249.824C381.765 250.449 376.952 250.442 372.203 249.803L373.311 249.952C368.563 249.3 363.92 248.035 359.497 246.189L360.493 246.609C356.225 244.721 352.175 242.375 348.414 239.612C346.456 238.163 344.391 236.863 342.238 235.725C339.729 234.444 337.012 233.618 334.214 233.287C328.969 232.669 323.624 234.712 320.74 239.244C318.086 243.415 318.12 249.383 321.837 252.929C325.664 256.582 331.461 256.551 335.972 254.266C340.316 252.066 342.926 247.494 344.761 243.184C348.891 233.483 352.547 223.559 355.953 213.584C359.323 203.715 362.38 193.747 365.122 183.678C365.461 182.431 365.796 181.183 366.126 179.933C366.682 177.828 365.425 175.31 363.215 174.806C362.15 174.532 361.02 174.682 360.063 175.226C359.106 175.769 358.398 176.662 358.088 177.717Z" fill="#3F3D56"/>
<path d="M399.675 176.561L398.174 229.796L396.682 282.753L395.838 312.698C395.847 313.801 396.29 314.855 397.069 315.635C397.849 316.414 398.903 316.857 400.006 316.866C401.105 316.845 402.153 316.399 402.93 315.622C403.707 314.845 404.153 313.797 404.174 312.698L405.674 259.463L407.167 206.505L408.01 176.561C408.001 175.458 407.559 174.403 406.779 173.624C406 172.844 404.945 172.402 403.842 172.393C402.744 172.414 401.696 172.86 400.919 173.637C400.142 174.414 399.696 175.462 399.675 176.561Z" fill="#3F3D56"/>
<path opacity="0.2" d="M255.408 297.835H256.702V238.904H286.894V237.613H256.702V212.748H280.018C279.677 212.313 279.325 211.884 278.963 211.46H256.702V195.037C256.274 194.854 255.843 194.678 255.408 194.512V211.46H230.038V190.417C229.603 190.437 229.175 190.467 228.744 190.504V211.46H208.504V195.76C208.069 195.953 207.641 196.155 207.217 196.367V211.46H190.202V212.748H207.217V237.613H190.202V238.904H207.217V297.835H208.504V238.904C211.162 238.904 213.794 239.427 216.25 240.444C218.706 241.461 220.937 242.952 222.817 244.831C224.696 246.711 226.187 248.942 227.204 251.398C228.221 253.854 228.744 256.486 228.744 259.144V297.835H230.038V238.904H255.408V297.835ZM208.504 237.613V212.748H228.744V237.613H208.504ZM230.038 237.613V212.748H230.546C233.811 212.748 237.044 213.391 240.061 214.641C243.077 215.891 245.818 217.722 248.127 220.031C250.436 222.34 252.267 225.081 253.516 228.098C254.765 231.115 255.408 234.348 255.408 237.613H230.038Z" fill="black"/>
<path d="M247.505 280.165C245.875 287.433 241.972 293.993 236.362 298.893C235.951 299.249 235.54 299.593 235.112 299.932C234.073 300.027 233.041 300.123 232.016 300.221C231.166 300.299 230.327 300.383 229.493 300.46L229.343 300.477L229.238 299.566L228.815 295.876C227.177 293.201 226.161 290.191 225.844 287.071C225.526 283.95 225.915 280.798 226.982 277.848C228.449 273.891 231.105 270.395 233.717 266.928C237.324 262.137 240.83 257.402 240.958 251.562C242.733 253.833 244.208 256.323 245.348 258.97C244.273 259.476 243.306 260.188 242.503 261.065C242.275 261.315 242.047 261.665 242.203 261.965C242.336 262.221 242.67 262.282 242.959 262.315C243.653 262.387 244.354 262.46 245.048 262.532C245.604 262.593 246.16 262.649 246.715 262.71C247.388 264.916 247.844 267.183 248.077 269.478C248.451 273.049 248.258 276.655 247.505 280.165Z" fill="#3F3D56"/>
<path d="M265.954 265.6C262.676 267.984 260.758 271.413 259.269 275.191C257.743 275.68 256.369 276.557 255.284 277.737C255.057 277.987 254.829 278.337 254.984 278.637C255.118 278.893 255.451 278.954 255.74 278.987C256.435 279.059 257.135 279.132 257.83 279.204C256.34 283.672 254.973 288.296 252.339 292.069C250.587 294.56 248.304 296.631 245.654 298.132C244.931 298.544 244.185 298.913 243.42 299.238C240.597 299.455 237.827 299.686 235.111 299.933C234.072 300.027 233.04 300.123 232.016 300.222C231.166 300.299 230.327 300.383 229.493 300.46C229.488 300.155 229.488 299.849 229.493 299.544C229.669 291.401 232.664 283.572 237.968 277.392C238.218 277.103 238.474 276.82 238.735 276.536C241.422 273.666 244.582 271.279 248.077 269.479C253.584 266.615 259.756 265.276 265.954 265.6Z" fill="#CFDB58"/>
<path d="M232.978 297.371L232.339 299.26L232.016 300.221C231.166 300.299 230.327 300.383 229.493 300.46L229.343 300.477C228.421 300.572 227.504 300.666 226.587 300.761C226.348 300.483 226.109 300.199 225.875 299.91C220.075 292.886 217.29 283.851 218.131 274.78C218.971 265.709 223.368 257.34 230.36 251.501C229.627 255.341 230.482 259.02 231.888 262.671C231.738 262.732 231.594 262.793 231.455 262.86C230.379 263.366 229.413 264.078 228.61 264.955C228.382 265.205 228.154 265.555 228.309 265.855C228.443 266.111 228.776 266.172 229.065 266.205C229.76 266.278 230.46 266.35 231.155 266.422C231.711 266.483 232.266 266.539 232.822 266.6C233.083 266.628 233.344 266.655 233.606 266.683C233.644 266.767 233.678 266.844 233.717 266.928C235.301 270.362 237.007 273.813 237.968 277.392C238.209 278.29 238.398 279.201 238.535 280.121C238.963 283.229 238.686 286.393 237.723 289.379C236.761 292.366 235.139 295.097 232.978 297.371Z" fill="#CFDB58"/>
<path d="M288.916 216.768C284.132 207.436 276.72 199.584 268.003 193.814C259.257 188.052 249.223 184.543 238.792 183.6C237.425 183.476 236.054 183.403 234.68 183.382C233.057 183.358 208.636 190.402 200.455 196.154C192.278 201.836 185.552 209.36 180.819 218.12C176.094 226.928 173.77 236.824 174.081 246.814C174.486 256.865 177.287 266.673 182.251 275.421C187.148 284.141 194.1 291.532 202.504 296.953C211.028 302.392 219.59 316.812 229.654 317.321C239.794 317.834 251.358 304.231 260.606 300.101C269.854 295.936 277.849 289.421 283.794 281.203C289.571 273.151 293.308 263.816 294.685 254.002C296.116 243.952 295.449 233.588 292.017 223.983C291.137 221.515 290.101 219.105 288.916 216.768C287.927 214.82 285.028 214.103 283.214 215.273C282.279 215.849 281.602 216.762 281.323 217.824C281.045 218.886 281.186 220.015 281.718 220.975C282.299 222.119 282.839 223.282 283.338 224.464L282.918 223.468C284.808 228.011 286.092 232.783 286.74 237.661L286.591 236.553C287.279 241.844 287.267 247.204 286.554 252.492L286.703 251.384C285.983 256.672 284.571 261.843 282.505 266.764L282.925 265.768C281.862 268.279 280.623 270.711 279.217 273.047C278.505 274.227 277.749 275.38 276.95 276.505C276.598 276.998 276.237 277.483 275.872 277.967C275.396 278.598 276.52 277.143 276.029 277.762C275.945 277.867 275.862 277.973 275.778 278.078C275.525 278.394 275.269 278.706 275.01 279.016C273.277 281.083 271.386 283.012 269.354 284.786C268.848 285.228 268.334 285.66 267.811 286.082C267.55 286.292 267.293 286.511 267.021 286.707C267.032 286.699 267.899 286.04 267.385 286.423C267.224 286.543 267.064 286.665 266.902 286.785C265.824 287.584 264.717 288.342 263.582 289.059C260.968 290.706 258.226 292.139 255.382 293.346L256.378 292.925C251.472 294.991 246.315 296.402 241.041 297.122L242.149 296.973C236.878 297.686 231.535 297.695 226.262 297.001L227.37 297.15C222.576 296.507 217.888 295.239 213.423 293.38L214.419 293.8C211.833 292.708 209.34 291.409 206.963 289.915C205.787 289.174 204.642 288.387 203.527 287.554C203.368 287.436 203.21 287.315 203.052 287.196C202.543 286.812 203.417 287.479 203.424 287.484C203.128 287.271 202.844 287.044 202.571 286.803C202.033 286.364 201.503 285.916 200.981 285.457C198.894 283.619 196.945 281.63 195.15 279.506C194.7 278.974 194.26 278.435 193.83 277.888C193.644 277.651 193.304 277.171 194.055 278.182C193.956 278.049 193.854 277.919 193.754 277.786C193.514 277.468 193.278 277.148 193.045 276.826C192.229 275.697 191.453 274.54 190.718 273.355C189.056 270.673 187.606 267.866 186.38 264.959L186.8 265.954C184.795 261.183 183.423 256.169 182.721 251.04L182.87 252.148C182.236 247.421 182.227 242.631 182.843 237.902L182.694 239.01C183.325 234.43 184.558 229.953 186.359 225.695L185.939 226.691C187.072 224.025 188.409 221.451 189.937 218.99C190.703 217.759 191.513 216.558 192.37 215.387C192.565 215.12 192.761 214.856 192.961 214.593C193.141 214.355 193.636 213.763 192.791 214.809C192.874 214.706 192.953 214.601 193.035 214.497C193.505 213.902 193.987 213.316 194.48 212.739C196.346 210.554 198.367 208.507 200.528 206.614C201.074 206.136 201.629 205.667 202.192 205.209C202.448 205 202.706 204.794 202.965 204.59C203.069 204.509 203.174 204.429 203.277 204.346C202.167 205.23 202.969 204.587 203.221 204.398C204.382 203.528 205.574 202.702 206.797 201.919C209.516 200.18 212.376 198.673 215.348 197.413L214.352 197.833C218.665 196.022 237.771 191.748 241.246 192.215L240.138 192.066C245.246 192.779 250.238 194.158 254.987 196.169L253.991 195.748C256.398 196.77 258.737 197.945 260.994 199.266C262.121 199.927 263.227 200.624 264.31 201.357C264.823 201.704 265.33 202.058 265.832 202.421C266.082 202.602 266.332 202.785 266.58 202.97C266.718 203.073 266.854 203.177 266.992 203.281C267.569 203.713 266.196 202.654 266.802 203.132C268.828 204.724 270.752 206.442 272.563 208.275C273.453 209.18 274.312 210.115 275.14 211.078C275.565 211.573 275.981 212.074 276.389 212.583C276.591 212.836 277.281 213.751 276.436 212.63C276.642 212.904 276.851 213.176 277.055 213.452C278.811 215.829 280.371 218.345 281.718 220.975C282.715 222.919 285.601 223.644 287.421 222.471C288.356 221.895 289.033 220.981 289.312 219.919C289.59 218.857 289.449 217.728 288.916 216.768Z" fill="#3F3D56"/>
<path d="M240.351 284.786C239.921 284.806 239.495 284.693 239.131 284.463C238.767 284.232 238.483 283.896 238.317 283.498C238.151 283.101 238.111 282.662 238.202 282.241C238.294 281.821 238.512 281.438 238.829 281.146C238.882 280.935 238.92 280.784 238.973 280.573C238.954 280.528 238.935 280.482 238.915 280.436C236.982 275.825 224.642 288.679 224.108 293.013C223.873 294.929 223.972 296.871 224.401 298.753C220.404 290.033 218.328 280.556 218.315 270.965C218.314 268.558 218.448 266.152 218.715 263.76C218.937 261.799 219.244 259.852 219.636 257.919C221.779 247.431 226.378 237.6 233.058 229.235C236.878 229.448 240.226 228.866 240.549 221.463C240.606 220.146 241.583 219.005 241.798 217.708C241.434 217.756 241.063 217.786 240.698 217.81C240.585 217.816 240.465 217.822 240.352 217.828L240.309 217.83C239.908 217.848 239.511 217.749 239.164 217.547C238.818 217.344 238.538 217.046 238.357 216.687C238.177 216.329 238.103 215.926 238.146 215.527C238.189 215.128 238.347 214.751 238.6 214.439C238.757 214.245 238.915 214.052 239.072 213.858C239.311 213.559 239.557 213.266 239.796 212.967C239.823 212.939 239.849 212.909 239.873 212.877C240.148 212.537 240.423 212.202 240.698 211.861C240.196 211.082 239.521 210.429 238.725 209.954C235.969 208.34 232.167 209.458 230.176 211.951C228.179 214.444 227.803 217.941 228.496 221.056C229.178 223.706 230.306 226.221 231.832 228.493C231.683 228.685 231.527 228.87 231.378 229.061C228.646 232.575 226.264 236.347 224.268 240.325C224.833 235.913 217.926 219.981 215.255 216.606C212.047 212.552 205.468 214.322 204.903 219.46C204.898 219.51 204.892 219.559 204.887 219.609C205.284 219.833 205.672 220.071 206.052 220.322C206.53 220.641 206.899 221.096 207.113 221.629C207.327 222.162 207.375 222.747 207.251 223.307C207.127 223.868 206.836 224.378 206.417 224.77C205.999 225.163 205.471 225.42 204.903 225.507L204.845 225.516C199.535 233.098 216.559 252.833 220.82 248.402C218.814 254.086 217.556 260.006 217.077 266.014C216.806 269.559 216.822 273.12 217.125 276.662L217.107 276.536C216.16 268.822 199.918 257.351 195.175 258.307C192.442 258.857 189.751 258.732 190.166 261.488C190.173 261.532 190.179 261.576 190.186 261.62C190.922 261.92 191.639 262.265 192.332 262.654C192.729 262.878 193.117 263.116 193.497 263.367C193.975 263.686 194.345 264.142 194.559 264.674C194.772 265.207 194.82 265.792 194.696 266.352C194.572 266.913 194.282 267.423 193.863 267.815C193.444 268.208 192.916 268.465 192.349 268.552L192.29 268.561C192.249 268.567 192.213 268.573 192.171 268.579C189.754 276.896 207.68 290.319 218.578 286.048H218.584C219.664 290.741 221.229 295.31 223.253 299.679H239.933C239.993 299.494 240.047 299.303 240.101 299.117C238.557 299.214 237.007 299.122 235.485 298.842C236.723 297.324 237.96 295.793 239.198 294.275C239.225 294.246 239.251 294.216 239.275 294.185C239.903 293.408 240.537 292.637 241.165 291.859L241.165 291.858C241.198 289.476 240.925 287.099 240.352 284.787L240.351 284.786ZM221.25 247.212L221.259 247.2L221.25 247.224V247.212ZM217.556 280.518L217.412 280.195C217.418 279.962 217.418 279.729 217.412 279.49C217.412 279.424 217.4 279.358 217.4 279.293C217.454 279.705 217.502 280.118 217.562 280.53L217.556 280.518Z" fill="#3F3D56"/>
<path d="M52.9325 250.078C56.3086 250.078 59.0455 247.341 59.0455 243.965C59.0455 240.589 56.3086 237.852 52.9325 237.852C49.5564 237.852 46.8195 240.589 46.8195 243.965C46.8195 247.341 49.5564 250.078 52.9325 250.078Z" fill="#3F3D56"/>
<path d="M126.289 316.766C129.665 316.766 132.402 314.029 132.402 310.653C132.402 307.276 129.665 304.54 126.289 304.54C122.913 304.54 120.176 307.276 120.176 310.653C120.176 314.029 122.913 316.766 126.289 316.766Z" fill="#3F3D56"/>
<path d="M404.709 316.766C408.085 316.766 410.822 314.029 410.822 310.653C410.822 307.276 408.085 304.54 404.709 304.54C401.333 304.54 398.596 307.276 398.596 310.653C398.596 314.029 401.333 316.766 404.709 316.766Z" fill="#3F3D56"/>
<path d="M419.714 238.964C423.09 238.964 425.827 236.227 425.827 232.851C425.827 229.474 423.09 226.738 419.714 226.738C416.338 226.738 413.601 229.474 413.601 232.851C413.601 236.227 416.338 238.964 419.714 238.964Z" fill="#3F3D56"/>
<path d="M401.93 182.279C405.307 182.279 408.043 179.542 408.043 176.166C408.043 172.79 405.307 170.053 401.93 170.053C398.554 170.053 395.817 172.79 395.817 176.166C395.817 179.542 398.554 182.279 401.93 182.279Z" fill="#3F3D56"/>
<path d="M146.851 232.85C146.847 234.412 146.243 235.912 145.164 237.041C144.085 238.17 142.613 238.84 141.054 238.914C139.494 238.988 137.966 238.459 136.785 237.437C135.604 236.416 134.861 234.979 134.71 233.425C134.559 231.871 135.011 230.318 135.973 229.088C136.935 227.858 138.333 227.045 139.878 226.817C141.422 226.589 142.996 226.963 144.272 227.863C145.548 228.763 146.43 230.119 146.734 231.65C146.812 232.045 146.852 232.447 146.851 232.85Z" fill="#3F3D56"/>
<path d="M269.111 200.062C272.487 200.062 275.224 197.326 275.224 193.949C275.224 190.573 272.487 187.836 269.111 187.836C265.735 187.836 262.998 190.573 262.998 193.949C262.998 197.326 265.735 200.062 269.111 200.062Z" fill="#3F3D56"/>
<path d="M208.537 193.949C208.533 195.511 207.929 197.011 206.85 198.14C205.771 199.268 204.299 199.939 202.74 200.013C201.18 200.087 199.651 199.558 198.471 198.536C197.29 197.515 196.547 196.078 196.396 194.524C196.245 192.97 196.697 191.417 197.659 190.187C198.621 188.957 200.019 188.144 201.563 187.916C203.108 187.688 204.682 188.062 205.958 188.962C207.234 189.862 208.116 191.217 208.42 192.749C208.498 193.144 208.537 193.546 208.537 193.949Z" fill="#3F3D56"/>
<path d="M129.623 176.166C129.62 177.728 129.016 179.228 127.937 180.357C126.858 181.485 125.386 182.156 123.826 182.23C122.266 182.304 120.738 181.775 119.557 180.753C118.376 179.731 117.634 178.295 117.482 176.741C117.331 175.186 117.784 173.634 118.745 172.404C119.707 171.174 121.105 170.36 122.65 170.132C124.195 169.904 125.768 170.279 127.044 171.179C128.321 172.078 129.202 173.434 129.507 174.966C129.585 175.361 129.624 175.763 129.623 176.166Z" fill="#3F3D56"/>
<path d="M333.02 252.301C336.396 252.301 339.133 249.564 339.133 246.188C339.133 242.812 336.396 240.075 333.02 240.075C329.644 240.075 326.907 242.812 326.907 246.188C326.907 249.564 329.644 252.301 333.02 252.301Z" fill="#3F3D56"/>
<path d="M236.879 196.728C241.79 196.728 245.771 192.747 245.771 187.836C245.771 182.926 241.79 178.945 236.879 178.945C231.968 178.945 227.987 182.926 227.987 187.836C227.987 192.747 231.968 196.728 236.879 196.728Z" fill="#3F3D56"/>
<path d="M477.338 317.233L0.661692 317.403C0.574797 317.403 0.48875 317.386 0.40847 317.353C0.328189 317.32 0.255249 317.271 0.193805 317.21C0.132361 317.148 0.0836146 317.075 0.0503613 316.995C0.0171079 316.915 0 316.829 0 316.742C0 316.655 0.0171079 316.569 0.0503613 316.488C0.0836146 316.408 0.132361 316.335 0.193805 316.274C0.255249 316.212 0.328189 316.164 0.40847 316.13C0.48875 316.097 0.574797 316.08 0.661692 316.08L477.338 315.909C477.514 315.91 477.681 315.98 477.805 316.104C477.929 316.228 477.998 316.396 477.998 316.571C477.998 316.746 477.929 316.914 477.805 317.038C477.681 317.162 477.514 317.232 477.338 317.233Z" fill="#CACACA"/>
</g>
<defs>
<clipPath id="clip0_18449_864">
<rect width="478" height="317.404" fill="white"/>
</clipPath>
</defs>
</svg>
